<svg width="64" height="64" viewBox="0 0 32 32" xmlns="http://www.w3.org/2000/svg"><defs><clipPath id="a"><path d="M0 0h32v32H0z"/></clipPath></defs><g data-name="Group 3262" clip-path="url(#a)"><g data-name="Group 3261"><g data-name="Group 3260"><path data-name="Path 4021" d="M29.335 2.662A8.83 8.83 0 0 0 25.044.209a4.33 4.33 0 0 0-4.094.977l-3.936 3.936L3.46 18.677a1 1 0 0 0-.193.288l-.034.081c-.01.027-.025.052-.033.08L.108 30.665a1 1 0 0 0 .966 1.259 1 1 0 0 0 .259-.034l11.539-3.09c.026-.007.048-.022.073-.031a1 1 0 0 0 .083-.034 1 1 0 0 0 .293-.195l13.555-13.554 3.936-3.936c1.937-1.94 1.288-5.623-1.477-8.388m-1.414 1.415c1.48 1.48 2.219 3.345 1.957 4.623l-6.58-6.58c1.278-.264 3.143.48 4.623 1.957m-7.878.845 7.033 7.033-.907.908-7.033-7.034ZM3.011 27.559l1.672-6.242 3 3 3 3-6.242 1.673Zm14.71-20.315L19 8.526 6.862 20.667 5.58 19.385ZM9.1 22.9l-1.527-1.527L19.715 9.232l3.054 3.054-12.145 12.143Zm3.517 3.517-1.282-1.282 12.141-12.142 1.283 1.283Zm15.17-15.17-7.033-7.033.908-.908 7.033 7.034Z" fill="#344952"/></g></g></g></svg>
